<svg width="15" height="15" viewBox="0 0 15 15" fill="none" xmlns="http://www.w3.org/2000/svg">
<path d="M7.5 7C8.32843 7 9 6.32843 9 5.5C9 4.67157 8.32843 4 7.5 4C6.67157 4 6 4.67157 6 5.5C6 6.32843 6.67157 7 7.5 7ZM7.5 7V9.5M7.86 13.86C7.62832 13.9494 7.37168 13.9494 7.14 13.86C5.33386 13.1636 3.78075 11.937 2.68486 10.3413C1.58896 8.74567 1.0016 6.85573 1 4.92V2C1 1.73478 1.10536 1.48043 1.29289 1.29289C1.48043 1.10536 1.73478 1 2 1H13C13.2652 1 13.5196 1.10536 13.7071 1.29289C13.8946 1.48043 14 1.73478 14 2V4.92C13.9984 6.85573 13.411 8.74567 12.3151 10.3413C11.2193 11.937 9.66614 13.1636 7.86 13.86Z" stroke="white" stroke-linecap="round" stroke-linejoin="round"/>
</svg>
