<svg width="15" height="13" viewBox="0 0 15 13" fill="none" xmlns="http://www.w3.org/2000/svg">
<path d="M12 7.5C12 9.98528 9.98528 12 7.5 12C5.01472 12 3 9.98528 3 7.5M12 7.5C12 5.01472 9.98528 3 7.5 3C5.01472 3 3 5.01472 3 7.5M12 7.5H14M3 7.5H1M1 11C1.49898 11.0015 1.99237 10.895 2.44633 10.6878C2.90029 10.4807 3.30408 10.1778 3.63 9.8M3.63 5.2C3.30408 4.82217 2.90029 4.5193 2.44633 4.31217C1.99237 4.10504 1.49898 3.99855 1 4M14 11C13.501 11.0015 13.0076 10.895 12.5537 10.6878C12.0997 10.4807 11.6959 10.1778 11.37 9.8M11.37 5.2C11.6959 4.82217 12.0997 4.5193 12.5537 4.31217C13.0076 4.10504 13.501 3.99855 14 4M8.74 3.17C9.12264 2.95143 9.4407 2.63561 9.66197 2.25453C9.88324 1.87345 9.99986 1.44066 10 1M5 1C5.00014 1.44066 5.11676 1.87345 5.33803 2.25453C5.5593 2.63561 5.87736 2.95143 6.26 3.17M3.11 6.5H11.89" stroke="white" stroke-linecap="round" stroke-linejoin="round"/>
</svg>
